<svg xmlns="http://www.w3.org/2000/svg" width="208" height="128" fill="none"><g clip-path="url(#a)"><path stroke="#fff" stroke-width="10" d="M193 5H15C9.477 5 5 9.477 5 15v98c0 5.523 4.477 10 10 10h178c5.523 0 10-4.477 10-10V15c0-5.523-4.477-10-10-10Z"/><path fill="#00DC82" d="M137.72 51.44c-5.92 0-10.72-4.799-10.72-10.72C127 34.8 131.8 30 137.72 30h.989c5.921 0 10.721 4.8 10.721 10.72 0 5.921-4.8 10.72-10.721 10.72h-.989Zm0 46.5c-5.92 0-10.72-4.799-10.72-10.72 0-5.92 4.8-10.72 10.72-10.72h.989c5.921 0 10.721 4.8 10.721 10.72 0 5.921-4.8 10.72-10.721 10.72h-.989ZM169.291 51.44c-5.921 0-10.721-4.799-10.721-10.72 0-5.92 4.8-10.72 10.721-10.72h.989C176.2 30 181 34.8 181 40.72c0 5.921-4.8 10.72-10.72 10.72h-.989Zm0 46.5c-5.921 0-10.721-4.799-10.721-10.72 0-5.92 4.8-10.72 10.721-10.72h.989c5.92 0 10.72 4.8 10.72 10.72 0 5.921-4.8 10.72-10.72 10.72h-.989Z"/><path fill="#fff" d="M30 98V30h20l20 25 20-25h20v68H90V59L70 84 50 59v39H30Z"/></g><defs><clipPath id="a"><path fill="#fff" d="M0 0h208v128H0z"/></clipPath></defs></svg>